<?xml version="1.0" standalone="no"?>
<!DOCTYPE svg PUBLIC "-//W3C//DTD SVG 20010904//EN"
 "http://www.w3.org/TR/2001/REC-SVG-20010904/DTD/svg10.dtd">
<svg version="1.0" xmlns="http://www.w3.org/2000/svg"
 width="300.000000pt" height="291.000000pt" viewBox="0 0 300.000000 291.000000"
 preserveAspectRatio="xMidYMid meet">
<metadata>
Created by potrace 1.10, written by Peter Selinger 2001-2011
</metadata>
<g transform="translate(0.000000,291.000000) scale(0.100000,-0.100000)"
fill="currentColor" stroke="none">
<path d="M1343 2581 c-17 -11 -37 -29 -42 -40 -15 -28 -14 -74 4 -97 13 -18
22 -64 9 -52 -10 10 -78 -13 -101 -34 -12 -12 -28 -37 -34 -57 -6 -20 -19 -45
-29 -56 -9 -11 -28 -45 -43 -75 -25 -53 -26 -61 -23 -210 3 -185 4 -192 53
-233 30 -26 58 -14 89 35 26 40 26 40 8 87 -17 47 -23 106 -11 118 13 12 47
-30 47 -59 0 -16 7 -40 16 -54 14 -20 15 -29 5 -51 -10 -23 -14 -55 -25 -208
-2 -16 2 -36 8 -43 7 -10 2 -20 -21 -38 -38 -30 -49 -62 -62 -180 -5 -50 -17
-108 -25 -128 -12 -28 -13 -43 -4 -68 9 -27 8 -33 -8 -45 -42 -31 -87 -79
-104 -113 l-13 -25 24 20 c13 10 43 37 66 59 66 62 59 38 -10 -34 -34 -36 -60
-71 -59 -78 4 -16 -36 -72 -50 -72 -6 0 -8 3 -5 7 13 12 -26 43 -54 43 -52 0
-249 -152 -249 -193 0 -8 11 -24 26 -37 l25 -24 47 24 c26 14 72 45 102 69 85
68 86 68 62 31 -12 -19 -39 -69 -61 -110 -36 -70 -38 -77 -25 -102 17 -33 133
-93 162 -84 27 9 229 222 301 319 20 27 91 146 91 154 0 3 28 33 61 66 34 34
68 72 76 85 9 12 21 22 27 22 20 0 16 -43 -4 -63 -11 -10 -20 -21 -21 -25 0
-4 -2 -16 -4 -27 -2 -10 0 -24 4 -30 15 -21 -3 -70 -43 -115 -17 -19 -54 -66
-81 -105 -27 -38 -81 -113 -120 -165 -39 -52 -80 -110 -90 -127 -11 -18 -22
-33 -25 -33 -18 0 -80 22 -80 29 0 4 51 61 113 127 245 258 277 294 259 294
-12 0 -68 -48 -126 -109 -28 -29 -92 -96 -143 -149 -102 -106 -132 -154 -112
-178 16 -20 40 -32 72 -38 31 -5 50 14 151 157 38 53 73 97 78 97 4 0 8 6 8
13 0 6 14 28 31 47 27 31 29 32 23 10 -4 -14 -35 -85 -70 -158 -35 -72 -64
-138 -65 -145 -8 -60 30 -79 153 -75 117 4 123 11 138 158 21 217 29 268 41
275 5 4 14 -6 20 -22 11 -30 22 -52 63 -128 15 -27 39 -77 54 -110 44 -98 74
-117 131 -83 20 12 38 25 41 29 3 4 50 31 105 59 55 29 111 62 125 75 14 12
34 26 45 29 28 9 97 73 128 120 24 35 25 40 13 65 -8 15 -42 46 -75 69 -33 24
-86 69 -116 101 -55 58 -114 97 -125 83 -9 -13 -54 -28 -70 -24 -16 4 -77 79
-124 152 -15 25 -36 52 -45 61 -55 56 -62 77 -30 97 14 9 19 21 17 40 -2 21
-15 33 -55 55 -29 16 -53 34 -53 40 0 15 22 76 37 102 16 29 36 106 35 133 -1
12 2 22 7 22 22 0 19 46 -5 82 -42 61 -108 101 -219 136 -26 8 -30 13 -28 42
1 18 4 39 7 46 8 20 40 5 58 -27 12 -20 39 -40 80 -59 35 -16 75 -40 89 -53
52 -50 95 -52 119 -7 24 44 -7 99 -76 134 -18 8 -45 28 -61 43 -16 15 -43 36
-61 45 -18 9 -36 28 -41 40 -5 13 -16 30 -25 37 -9 7 -16 22 -16 33 0 41 -44
99 -77 104 -30 5 -38 22 -25 57 7 18 12 46 12 61 0 32 -30 94 -56 117 -28 24
-103 24 -141 0z m132 -43 c7 -18 17 -36 21 -41 4 -4 9 -22 11 -41 3 -30 0 -35
-19 -38 -37 -5 -35 -42 5 -82 50 -49 61 -103 42 -208 -8 -45 -18 -100 -21
-120 -4 -21 -11 -38 -16 -38 -20 0 -134 70 -162 99 l-29 30 36 41 c64 76 72
185 15 225 -21 14 -21 15 -4 28 17 13 17 15 -8 51 -14 22 -26 49 -26 62 0 34
45 64 97 64 40 0 45 -3 58 -32z m-165 -188 c24 -13 44 -74 36 -112 -7 -34 -42
-88 -58 -88 -16 0 0 52 24 78 24 25 20 27 -15 11 -19 -9 -31 -7 -56 5 -41 22
-41 56 0 90 34 29 42 31 69 16z m263 -48 c21 -23 26 -63 10 -69 -7 -3 -13 3
-13 12 0 9 -7 29 -15 45 -17 33 -7 40 18 12z m-356 -88 c21 -14 39 -27 41 -29
5 -5 -31 -65 -39 -65 -4 0 -21 13 -38 29 -28 26 -29 31 -18 60 6 17 12 31 14
31 1 0 19 -12 40 -26z m423 -54 c-1 -3 -12 -18 -26 -33 -20 -23 -27 -27 -39
-17 -15 12 -11 57 8 94 9 19 11 18 33 -10 13 -16 24 -31 24 -34z m-479 -30
c23 -13 25 -33 5 -49 -11 -9 -20 -10 -35 -1 -24 12 -27 30 -9 48 15 15 15 15
39 2z m513 -23 c11 -18 -4 -36 -30 -37 -18 0 -26 31 -13 47 14 16 29 13 43
-10z m-394 -27 c37 -73 18 -128 -27 -76 -22 26 -29 68 -17 100 10 26 22 19 44
-24z m499 -45 c10 -14 28 -25 39 -25 47 0 89 -73 57 -100 -14 -12 -22 -8 -60
33 -24 26 -48 47 -53 47 -6 0 -35 9 -65 21 l-55 21 31 33 32 32 27 -19 c15
-10 36 -30 47 -43z m-579 23 c0 -7 -7 -38 -15 -68 -17 -62 -19 -110 -6 -110 9
0 41 -71 41 -90 0 -19 -21 -10 -31 13 -7 17 -8 11 -4 -26 4 -45 4 -47 -15 -37
-39 21 -48 51 -53 187 l-6 132 29 -5 c15 -4 31 -1 34 5 10 15 26 14 26 -1z
m188 -77 c31 -16 84 -32 117 -36 67 -8 197 -55 235 -85 17 -13 20 -20 10 -20
-9 0 -30 -13 -48 -29 -57 -52 -206 -56 -306 -7 -61 30 -88 64 -88 111 0 37 11
95 18 95 3 0 30 -13 62 -29z m400 -173 c16 -16 15 -23 -4 -42 -19 -20 -29 -20
-48 0 -12 12 -13 20 -6 35 12 21 40 25 58 7z m-443 -28 c9 -10 40 -27 69 -36
28 -9 54 -19 58 -23 4 -3 -7 -40 -25 -81 l-32 -75 -40 0 c-22 -1 -49 -5 -59
-10 -18 -8 -19 -5 -13 61 4 38 7 95 7 127 0 61 7 68 35 37z m370 -39 c3 -5 18
-12 34 -16 l29 -6 -44 -106 c-24 -59 -44 -117 -44 -129 0 -27 32 -52 78 -60
33 -6 52 -28 37 -42 -3 -4 -34 -8 -68 -8 -34 -1 -76 -5 -93 -9 -47 -11 -61 13
-39 67 10 26 21 88 25 153 8 125 22 165 56 165 13 0 25 -4 29 -9z m-113 -30
c-1 -7 -5 -56 -7 -108 -3 -52 -12 -119 -22 -149 -16 -51 -16 -56 0 -89 9 -19
24 -35 32 -35 20 0 13 -12 -45 -81 -52 -60 -84 -94 -121 -127 l-27 -23 -22 23
c-37 39 -60 81 -60 113 0 36 65 223 86 246 8 8 14 25 14 37 0 12 13 42 29 67
16 26 35 69 41 96 l12 50 47 -3 c32 -2 45 -7 43 -17z m-213 -175 c18 -22 -4
-58 -32 -54 -25 3 -34 32 -17 53 16 19 34 19 49 1z m-79 -61 c13 -14 30 -25
38 -25 10 0 12 -6 7 -17 -36 -87 -65 -179 -65 -204 0 -40 14 -65 63 -116 65
-67 38 -74 -69 -17 -49 25 -92 51 -96 57 -4 6 2 26 13 44 15 23 22 60 28 136
8 96 29 167 50 167 4 0 18 -11 31 -25z m459 -177 c30 -29 77 -89 107 -134 29
-45 69 -95 89 -111 43 -36 43 -61 2 -81 l-28 -14 23 -22 c13 -12 66 -78 118
-146 52 -67 103 -134 113 -147 l19 -23 -39 -16 c-71 -29 -157 -77 -210 -116
-29 -22 -57 -38 -62 -36 -11 3 -136 252 -201 401 -40 91 -42 98 -26 115 24 27
20 62 -11 94 l-26 27 26 108 c15 59 27 113 27 118 0 6 -21 -22 -48 -61 -60
-90 -190 -251 -208 -258 -10 -4 -14 3 -14 26 0 26 15 48 87 122 48 50 111 117
141 149 30 31 58 57 61 57 4 0 31 -24 60 -52z m-461 -255 c53 -25 99 -48 101
-49 2 -2 -18 -41 -43 -88 -47 -86 -117 -174 -260 -328 l-82 -87 -57 34 c-32
19 -62 35 -68 35 -25 0 -20 10 147 270 61 96 121 194 133 218 12 23 24 42 27
42 3 0 49 -21 102 -47z m310 -13 c-11 -19 -10 -23 10 -40 21 -17 23 -25 18
-72 -3 -29 -15 -152 -26 -273 -12 -121 -23 -231 -26 -244 -5 -24 -5 -24 -111
-18 -58 3 -108 8 -110 11 -3 3 26 72 65 153 39 81 96 206 127 276 52 119 55
130 41 146 -21 23 -20 55 0 76 22 21 29 13 12 -15z m560 -54 c34 -35 62 -68
62 -73 0 -5 15 -14 33 -21 17 -7 52 -29 75 -50 l44 -38 -71 -73 c-62 -64 -91
-80 -91 -50 0 8 -34 100 -90 244 -10 28 -24 63 -30 79 l-10 28 -50 -46 c-28
-26 -55 -44 -61 -41 -5 4 -9 11 -7 15 6 16 103 89 119 90 9 0 44 -29 77 -64z
m-55 -116 c15 -40 25 -75 22 -78 -6 -6 -47 39 -83 92 -25 37 -26 39 -7 52 11
8 24 13 29 11 6 -2 23 -36 39 -77z m-1135 8 c-6 -18 -163 -152 -204 -174 -31
-17 -35 -17 -49 -3 -15 14 -10 21 52 71 91 73 129 98 161 108 39 12 44 12 40
-2z"/>
<path d="M1717 948 c14 -24 103 -101 103 -90 0 18 -51 72 -82 88 -23 12 -28
13 -21 2z"/>
<path d="M1195 936 c3 -27 11 -58 16 -70 9 -20 7 7 -8 84 -8 46 -16 35 -8 -14z"/>
</g>
</svg>
